STARTFONT 2.1
FONT -FontForge-Untitled1-Regular-R-Normal--100-960-75-75-P-447-ISO8859-1
SIZE 96 75 75
FONTBOUNDINGBOX 74 104 -10 -32
COMMENT "Generated by fontforge, http://fontforge.sourceforge.net"
COMMENT "Copyright (c) 2020, Chris"
STARTPROPERTIES 31
FOUNDRY "FontForge"
FAMILY_NAME "Untitled1"
WEIGHT_NAME "Regular"
SLANT "R"
SETWIDTH_NAME "Normal"
ADD_STYLE_NAME ""
PIXEL_SIZE 100
POINT_SIZE 960
RESOLUTION_X 75
RESOLUTION_Y 75
SPACING "P"
AVERAGE_WIDTH 447
CHARSET_REGISTRY "ISO8859"
CHARSET_ENCODING "1"
FONTNAME_REGISTRY ""
CHARSET_COLLECTIONS "ISOLatin1Encoding"
FONT_NAME "Untitled1"
FACE_NAME "Untitled1"
COPYRIGHT "Copyright (c) 2020, Chris"
FONT_VERSION "001.000"
FONT_ASCENT 80
FONT_DESCENT 20
UNDERLINE_POSITION -10
UNDERLINE_THICKNESS 5
X_HEIGHT 46
CAP_HEIGHT 66
RAW_ASCENT 800
RAW_DESCENT 200
FIGURE_WIDTH -1
AVG_LOWERCASE_WIDTH 402
AVG_UPPERCASE_WIDTH 491
ENDPROPERTIES
CHARS 52
STARTCHAR A
ENCODING 65
SWIDTH 488 0
DWIDTH 49 0
BBX 45 66 2 0
BITMAP
000007C00000
00000FE00000
00001FF00000
00003FF80000
00007FFC0000
0000FFFC0000
0000FFFC0000
0001FFFE0000
0003FFFE0000
0003FFFF0000
0007FFFF0000
0007FEFF8000
0007FC7F8000
000FF87F8000
000FF83FC000
000FF03FC000
001FF01FC000
001FE01FE000
001FE01FE000
003FC00FE000
003FC00FF000
003FC00FF000
007F800FF000
007F8007F000
007F0007F800
00FF0007F800
00FF0007F800
00FE0003FC00
01FE0003FC00
01FE0003FC00
01FE0003FC00
01FE0001FE00
03FFE001FE00
03FFFFFFFE00
03FFFFFFFE00
03FFFFFFFF00
07FFFFFFFF00
07FFFFFFFF00
07FFFFFFFF00
07F007FFFF00
0FF00007FF80
0FF00000FF80
0FE000007F80
0FE000007F80
1FE000007F80
1FE000007FC0
1FC000003FC0
1FC000003FC0
3FC000003FC0
3FC000003FC0
3FC000003FE0
3F8000001FE0
3F8000001FE0
7F8000001FE0
7F8000001FE0
7F8000001FF0
7F8000000FF0
7F0000000FF0
7F0000000FF0
7F0000000FF0
FF0000000FF0
FF0000000FF8
FF00000007F8
FF00000007F8
7E00000003F8
3C00000001E0
ENDCHAR
STARTCHAR B
ENCODING 66
SWIDTH 507 0
DWIDTH 51 0
BBX 40 67 6 0
BITMAP
0007E00000
00FFFF8000
03FFFFE000
07FFFFF800
0FFFFFFC00
1FFFFFFE00
3FFFFFFF00
3FFFFFFF00
7FF807FF80
7FC001FF80
7F8000FF80
FF00007F80
FF00003FC0
FF00003FC0
FF00003FC0
FF00001FC0
FF00001FC0
FF00001FC0
FF00001FC0
FF00003FC0
FF00003FC0
FF00003F80
FF00007F80
FF00007F80
FF0000FF80
FF0001FF00
FF0007FF00
FF001FFE00
FF00FFFC00
FF7FFFF800
FFFFFFFF00
FFFFFFFFC0
FFFFFFFFE0
FFFFFFFFF0
FFFFFFFFF8
FFFFFFFFF8
FFFFFFFFFC
FFF0001FFE
FF000007FE
FF000003FE
FF000001FF
FF000001FF
FF000000FF
FF000000FF
FF000000FF
FF000000FF
FF000000FF
FF000000FF
FF000000FF
FF000000FF
FF000000FF
FF000000FF
FF000000FF
FF000001FF
FF000003FF
FF000007FE
FF00001FFE
FF00007FFC
FF000FFFFC
FFFFFFFFF8
FFFFFFFFF0
FFFFFFFFE0
FFFFFFFFC0
FFFFFFFF00
7FFFFFFC00
7FFFFFE000
7FFFFC0000
ENDCHAR
STARTCHAR C
ENCODING 67
SWIDTH 548 0
DWIDTH 55 0
BBX 46 65 4 0
BITMAP
000003FFFC00
00001FFFFFC0
0000FFFFFFF8
0003FFFFFFFC
0007FFFFFFFC
001FFFFFFFFC
003FFFFFFFFC
007FFFFFFFF8
00FFFF800FF0
01FFFC000000
03FFE0000000
03FFC0000000
07FF00000000
0FFE00000000
0FFC00000000
1FF800000000
1FF800000000
1FF000000000
3FF000000000
3FE000000000
3FE000000000
7FC000000000
7FC000000000
7FC000000000
7FC000000000
7F8000000000
7F8000000000
FF8000000000
FF8000000000
FF8000000000
FF8000000000
FF8000000000
FF8000000000
FF8000000000
FF8000000000
FF8000000000
FF8000000000
FF8000000000
FF8000000000
7F8000000000
7F8000000000
7F8000000000
7FC000000000
7FC000000000
7FC000000000
3FE000000000
3FE000000000
3FE000000000
1FF000000000
1FF000000000
1FF800000078
0FFC000001FC
0FFE000007FC
07FF00001FFC
07FF8000FFF8
03FFC003FFF8
01FFF03FFFF0
01FFFFFFFFE0
00FFFFFFFF80
007FFFFFFE00
003FFFFFF800
001FFFFFE000
0007FFFF0000
0001FFFC0000
00007FC00000
ENDCHAR
STARTCHAR D
ENCODING 68
SWIDTH 475 0
DWIDTH 48 0
BBX 43 72 4 -5
BITMAP
1F0000000000
3FE000000000
7FF800000000
FFFF00000000
FFFFC0000000
FFFFE0000000
FFFFF8000000
FFFFFC000000
FFFFFF000000
FF3FFF800000
FF0FFFC00000
FF03FFE00000
FF00FFF00000
FF007FFC0000
FF001FFE0000
FF000FFE0000
FF0007FF0000
FF0003FF8000
FF0001FFC000
FF0000FFE000
FF00007FE000
FF00003FF000
FF00001FF800
FF00001FF800
FF00000FFC00
FF000007FC00
FF000007FE00
FF000003FE00
FF000003FF00
FF000001FF00
FF000001FF80
FF000000FF80
FF000000FF80
FF0000007F80
FF0000007FC0
FF0000007FC0
FF0000007FC0
FF0000003FC0
FF0000003FC0
FF0000003FE0
FF0000003FE0
FF0000003FE0
FF0000001FE0
FF0000001FE0
FF8000001FE0
FF8000001FE0
FF8000001FE0
FF8000001FE0
FF8000001FC0
FF8000001FC0
7F8000001FC0
7F8000001FC0
7F8000003FC0
7F8000003F80
7F8000007F80
7FC00000FF00
7FC00001FF00
7FC0000FFE00
7FC0007FFE00
7FFFFFFFFC00
FFFFFFFFF800
FFFFFFFFF000
7FFFFFFFE000
3FFFFFFF8000
3FFFFFFE0000
3FFFFFF80000
3FEFFF800000
1FF000000000
1FF000000000
1FE000000000
1FE000000000
0F8000000000
ENDCHAR
STARTCHAR E
ENCODING 69
SWIDTH 442 0
DWIDTH 44 0
BBX 39 66 4 0
BITMAP
0FFFFE0000
1FFFFFFFF8
3FFFFFFFFC
7FFFFFFFFE
7FFFFFFFFE
7FFFFFFFFC
7FFFFFFFFC
7FFFFFFFF0
7F87FFFF80
7F80000000
7F80000000
7F80000000
7F80000000
7F80000000
7F80000000
7F80000000
7F80000000
7F80000000
7F80000000
7F80000000
7F80000000
7F80000000
7F80000000
7F80000000
7F80000000
7FFFFFFC00
7FFFFFFF00
FFFFFFFF80
FFFFFFFF80
FFFFFFFF80
FFFFFFFF80
7FFFFFFF00
3FFFFFFC00
3F80000000
3F80000000
3F80000000
3F80000000
3F80000000
3F80000000
3F80000000
3F80000000
3F80000000
3F80000000
3F80000000
3F80000000
3F80000000
3FC0000000
3FC0000000
3FC0000000
3FC0000000
3FC0000000
3FC0000000
3FC0000000
3FC0000000
3FC0000000
3F80000000
3F80000000
3F80000000
3FFFFFFFC0
3FFFFFFFE0
3FFFFFFFF0
3FFFFFFFF0
7FFFFFFFE0
3FFFFFFFE0
3FFFFFFF80
1FFFFFFF00
ENDCHAR
STARTCHAR F
ENCODING 70
SWIDTH 375 0
DWIDTH 38 0
BBX 39 66 0 0
BITMAP
3FE0000000
7FFFFFFFF8
FFFFFFFFFE
FFFFFFFFFE
FFFFFFFFFE
FFFFFFFFFE
FFFFFFFFFE
7FFFFFFFFE
3FFFFFFFF0
0FE0000000
0FE0000000
0FE0000000
0FE0000000
0FE0000000
0FE0000000
0FE0000000
0FE0000000
0FE0000000
0FE0000000
0FE0000000
0FE0000000
0FE0000000
0FE0000000
0FE0000000
0FE0000000
0FE0000000
0FE0000000
0FFFFFFF80
0FFFFFFFC0
0FFFFFFFE0
0FFFFFFFE0
0FFFFFFFC0
0FFFFFFFC0
0FFFFFFFC0
0FFFFFFF00
0FE0000000
0FE0000000
0FE0000000
0FE0000000
0FE0000000
0FE0000000
0FE0000000
0FE0000000
0FE0000000
0FE0000000
0FE0000000
0FE0000000
0FE0000000
0FE0000000
0FE0000000
0FE0000000
0FE0000000
0FE0000000
0FE0000000
0FF0000000
0FF0000000
0FF0000000
0FF0000000
0FF0000000
0FF0000000
0FF0000000
0FF0000000
0FE0000000
07E0000000
07E0000000
03C0000000
ENDCHAR
STARTCHAR G
ENCODING 71
SWIDTH 480 0
DWIDTH 48 0
BBX 43 67 4 0
BITMAP
000000FF8000
00000FFFF800
00003FFFFE00
0000FFFFFF00
0003FFFFFFC0
0007FFFFFFE0
000FFFFFFFE0
001FFFFFFFE0
003FFFFFFFE0
007FFF00FFE0
00FFF8003FE0
01FFF0000FC0
01FFC0000000
03FF80000000
03FF00000000
07FE00000000
0FFE00000000
0FFC00000000
0FF800000000
1FF800000000
1FF000000000
1FF000000000
3FE000000000
3FE000000000
3FC000000000
7FC000000000
7FC000000000
7FC000000000
7F8000000000
7F8000000000
7F8001FE0000
7F8003FFC000
FF8003FFF000
FF8007FFF800
FF8007FFFC00
FF8007FFFE00
FF8003FFFE00
FF8001FFFF00
FF80003FFF00
7F800003FF80
7F800000FF80
7F800000FF80
7F8000007F80
7F8000007F80
7FC000007F80
7FC000007F80
3FC000007F80
3FC000007F80
3FE000007F80
1FE000007FC0
1FF000007FC0
1FF000007FC0
0FF80000FFC0
0FF80000FFC0
07FC0001FFC0
07FE0003FFC0
03FF0007FFC0
03FF800FFFC0
01FFE07FFFC0
00FFFFFFFFC0
00FFFFFFFF80
007FFFFFFF80
003FFFFFBF80
001FFFFF3F80
0007FFFC3F80
0001FFF03F80
00007F801E00
ENDCHAR
STARTCHAR H
ENCODING 72
SWIDTH 468 0
DWIDTH 47 0
BBX 38 66 5 0
BITMAP
00000000F8
0E000001FC
3F000001FC
7F800001FC
7F800001FC
7F800001FC
7F800001FC
7F800001FC
7F800001FC
7F000001FC
7F000001FC
7F000001FC
7F000001FC
7F000001FC
7F000001FC
7F000001FC
7F000001FC
7F000001FC
7F000001FC
7F000001FC
7F000001FC
7F000001FC
7F000001FC
7F000001FC
7F000001FC
7F000001FC
7F000001FC
7F000001FC
7FFC0001FC
7FFFFFFFFC
7FFFFFFFFC
7FFFFFFFFC
7FFFFFFFFC
7FFFFFFFFC
7FFFFFFFFC
7FFFFFFFFC
FF003FFFFC
FF000001FC
FF000001FC
FF000001FC
FF000001FC
7F000001FC
7F000001FC
7F000001FC
7F000001FC
7F000001FC
7F000001FC
7F000001FC
7F000001FC
7F800001FC
7F800001FC
7F800001FC
7F800001FC
7F800001FC
7F800001FC
7F800001FC
7F800001FC
7F800001FC
7F800001FC
7F800001FC
7F800001FC
3F800001FC
3F800001FC
3F800003FC
3F800001F8
3F000001F0
ENDCHAR
STARTCHAR I
ENCODING 73
SWIDTH 235 0
DWIDTH 24 0
BBX 8 65 8 0
BITMAP
1E
7F
FF
FF
FF
FF
FF
FF
FF
FF
FF
FF
FF
FF
FF
FF
FF
FF
FF
FF
FF
FF
FF
FF
FF
FF
FF
FF
FF
FF
FF
FF
FF
7F
7F
7F
7F
7F
7F
7F
7F
7F
7F
7F
7F
FF
FF
FF
FF
FF
FF
FF
FF
FF
FF
FF
FF
FF
FF
FF
FF
FF
FE
FC
78
ENDCHAR
STARTCHAR J
ENCODING 74
SWIDTH 370 0
DWIDTH 37 0
BBX 31 67 3 -1
BITMAP
000001F0
000003F8
000007F8
000007F8
000007F8
000007F8
000007F8
000007F8
000007F8
000007FC
000007FC
000003FC
000003FC
000003FC
000003FC
000003FC
000003FC
000003FC
000003FC
000003FC
000003FC
000003FC
000001FC
000001FE
000001FE
000001FE
000001FE
000001FE
000001FE
000001FE
000001FE
000001FE
000001FE
000001FE
000000FE
000000FE
000000FE
000000FE
000000FE
000000FE
000000FE
000000FE
000000FE
000000FE
0C0000FE
3E0000FE
7F0000FE
7F0000FE
FF0001FE
FF0001FE
7F0001FE
7F8001FC
7F8001FC
7F8001FC
7FC003FC
7FC003FC
3FE003FC
3FE007F8
1FF00FF8
1FFC1FF8
0FFFFFF0
07FFFFF0
07FFFFE0
01FFFFC0
00FFFF80
003FFE00
0007F800
ENDCHAR
STARTCHAR K
ENCODING 75
SWIDTH 523 0
DWIDTH 52 0
BBX 45 66 5 1
BITMAP
1C0000000F80
7E0000001FC0
7F0000003FE0
FF0000003FE0
FF0000007FC0
FF000000FFC0
FF000000FF80
FF000001FF80
FF800003FF00
FF800003FF00
FF800007FE00
FF80000FFE00
FF80000FFC00
FF80001FF800
FF80003FF000
7F80007FF000
7F80007FE000
7F8000FFC000
7F8001FF8000
7F8003FF8000
7F8007FF0000
7F800FFE0000
7F801FFC0000
7FC03FFC0000
7FC07FF80000
7FC0FFF00000
7FC1FFE00000
7FC3FFC00000
7FC7FF800000
7FCFFF800000
7FDFFFC00000
7FFFFFE00000
7FFFFFF00000
3FFFFFF80000
3FFFFFFC0000
3FFFDFFE0000
3FFF8FFF0000
3FFF07FF0000
3FFC03FF8000
3FF801FFC000
3FF001FFE000
3FE000FFE000
3FC0007FF000
3FC0003FF000
3FC0003FF800
3FC0001FFC00
3FC0000FFC00
3FC0000FFE00
3FC00007FE00
3FC00003FF00
3FC00003FF80
3FC00001FF80
3FC00001FFC0
3FC00000FFC0
3FC000007FE0
3FC000007FF0
3FC000003FF0
3FC000003FF8
3FC000001FF8
3FC000000FF8
3FC000000FF8
3FC0000007F8
3FC0000003F8
3F80000003F8
3F80000001F0
1E00000000E0
ENDCHAR
STARTCHAR L
ENCODING 76
SWIDTH 372 0
DWIDTH 37 0
BBX 31 66 3 0
BITMAP
3F000000
7FC00000
7FC00000
7FC00000
7FC00000
7FC00000
7FC00000
7FC00000
7FC00000
7FC00000
7FC00000
7FC00000
FF800000
FF800000
FF800000
FF800000
FF800000
FF800000
FF800000
FF800000
FF800000
FF800000
FF800000
FF800000
FF800000
FF800000
FF000000
FF000000
FF000000
FF000000
FF000000
FF000000
FF000000
FF000000
FF000000
FF000000
FF000000
FF000000
FF000000
FF000000
FF000000
FF000000
FF000000
FF000000
FF000000
FF000000
FF000000
FF000000
FF000000
FF000000
FF000000
FF000000
FF000000
FF000000
FF000000
FF000000
FF000000
FF8007F8
FFFFFFFE
FFFFFFFE
FFFFFFFE
FFFFFFFE
FFFFFFFE
FFFFFFFC
FFFFFFF8
1FFFFFC0
ENDCHAR
STARTCHAR M
ENCODING 77
SWIDTH 595 0
DWIDTH 60 0
BBX 50 67 5 0
BITMAP
00000000000F00
00000000001F80
3E000000003F80
7F000000003F80
7F000000007F80
FF000000007F80
FF000000007F80
FF00000000FFC0
FF00000000FFC0
FF80000000FFC0
FF80000001FFC0
FF80000001FFC0
FF80000003FFC0
FF80000003FFC0
FF80000007FFC0
FFC0000007FFC0
FFC000000FFFC0
FFC000000FFFC0
FFC000001FFFC0
FFE000001FFFC0
FFE000003FFFC0
FFF000007FFFC0
FFF00000FFFFC0
FFF80001FFFFC0
FFFC0007FF7FC0
FFFE000FFF7FC0
FFFF007FFE7FC0
FFFFFFFFFC7FC0
FFFFFFFFF83FC0
FFFFFFFFF03FC0
FFFFFFFFE03FC0
FF7FFFFF803FC0
FF3FFFFF003FC0
FF0FFFFC003FC0
FF07FFF0003FC0
FF00FF80003FC0
FF000000003FC0
FF000000003FC0
FF000000003FC0
FF000000003FC0
FF000000003FC0
FF000000003FC0
FF000000003FC0
FF000000003FC0
FF000000003FC0
FF000000003FC0
FF000000003FC0
FF000000003FC0
FF000000003FC0
FF000000003FC0
FF000000003FC0
FF000000003FC0
FF000000003FC0
FF000000003FC0
FF000000003FC0
FF000000003FC0
FF000000003FC0
FF000000003FC0
FF000000003FC0
FF000000003FC0
FF000000003FC0
FF000000003FC0
FF000000003FC0
FF000000003F80
FF000000003F80
FE000000003F80
78000000001E00
ENDCHAR
STARTCHAR N
ENCODING 78
SWIDTH 532 0
DWIDTH 53 0
BBX 46 67 4 0
BITMAP
0000000001E0
0000000003F0
0000000007F8
0000000007F8
0000000007F8
0000000007F8
1F00000007F8
3F8000000FF8
3FC000000FF8
3FE000000FF8
3FF000000FF8
3FF800000FF8
3FFC00000FF8
3FFE00000FF8
3FFF00000FF8
3FFF000007F8
3FFF800007F8
3FFFC00007F8
3FFFC00007F8
3FBFE00007F8
3F9FF00007F8
3F8FF00007F8
3F8FF80007F8
3F87FC0007F8
3F83FC0007F8
7F83FE0007F8
7F81FE0007F8
7F80FF0007F8
7F80FF8007F8
7F807F8007F8
7F803FC007F8
7F803FC007F8
7F801FE007F8
7F801FE007F8
7F800FF007F8
7F8007F007F8
7F8007F807F8
7F8003FC07F8
7F8003FC07F8
7F8001FE07F8
7F8001FE07F8
7F8000FF07F8
7F8000FF07F8
7F80007F87F8
7F80007F87F8
7F80003FC7F8
7F80003FC7F8
7F80001FE7F8
7F80000FF7F8
7F80000FF7F8
7F800007FBF8
FF800007FBF8
FF800003FFF8
FF000003FFF8
FF000001FFFC
FF000001FFFC
FF000000FFFC
FF000000FFFC
FF0000007FFC
FF0000007FFC
FF0000003FFC
FF0000003FFC
FF0000001FFC
FF0000001FF8
FE0000000FF8
7E00000007F0
1800000003E0
ENDCHAR
STARTCHAR O
ENCODING 79
SWIDTH 556 0
DWIDTH 56 0
BBX 48 67 4 0
BITMAP
00000FFE0000
0000FFFFC000
0003FFFFF000
000FFFFFF800
001FFFFFFC00
007FFFFFFF00
00FFFFFFFF00
01FFFFFFFF80
01FFFE0FFFC0
03FFE000FFE0
07FF80007FE0
07FE00003FF0
0FFC00001FF0
0FF800000FF8
1FF0000007F8
1FE0000007FC
3FE0000007FC
3FC0000003FC
3FC0000003FE
7FC0000003FE
7F80000001FE
7F80000001FE
7F80000001FE
7F80000001FF
FF00000001FF
FF00000001FF
FF00000001FF
FF00000000FF
FF00000000FF
FF00000000FF
FF00000000FF
FF00000000FF
FF00000000FF
FF00000000FF
FF80000000FF
FF80000000FF
7F80000001FF
7F80000001FF
7F80000001FF
7F80000001FF
7FC0000001FE
7FC0000001FE
3FC0000001FE
3FE0000003FE
3FE0000003FE
3FE0000003FC
1FF0000003FC
1FF0000007FC
1FF8000007F8
0FF8000007F8
0FFC00000FF8
0FFC00001FF0
07FE00001FF0
07FF00003FE0
03FF80007FE0
03FFC000FFC0
01FFF001FF80
00FFFC07FF80
00FFFFFFFF00
007FFFFFFE00
003FFFFFFC00
001FFFFFF800
000FFFFFF000
0007FFFFE000
0001FFFF8000
00007FFE0000
00000FF00000
ENDCHAR
STARTCHAR P
ENCODING 80
SWIDTH 481 0
DWIDTH 48 0
BBX 37 66 5 0
BITMAP
00FFF80000
0FFFFF8000
3FFFFFF000
7FFFFFFC00
7FFFFFFF00
FFFFFFFF80
FFFFFFFFC0
FFFFFFFFE0
FF0003FFF0
FF0000FFF0
FF00003FF8
FF00001FF8
FF00000FF8
FF000007F8
FF000007F8
FF000007F8
FF000007F8
FF000007F8
FF000007F8
FF000007F8
FF000007F8
FF000007F8
FF00000FF8
FF00000FF8
FF00000FF0
FF00001FF0
FF00003FF0
FF00007FE0
FFE003FFE0
FFFFFFFFC0
FFFFFFFFC0
FFFFFFFF80
FFFFFFFF00
FFFFFFFE00
FFFFFFF800
FFFFFFE000
FF81FC0000
FF80000000
FF80000000
FF80000000
FF80000000
FF80000000
FF80000000
FF80000000
FF80000000
FF80000000
FF80000000
FF80000000
FF80000000
FF80000000
FF80000000
FF80000000
FF80000000
7F80000000
7F80000000
7F80000000
7F80000000
7F80000000
7F80000000
7F80000000
7F80000000
7F80000000
7F80000000
3F80000000
3F00000000
1E00000000
ENDCHAR
STARTCHAR Q
ENCODING 81
SWIDTH 655 0
DWIDTH 66 0
BBX 56 67 5 0
BITMAP
000003FF000000
00001FFFF00000
0000FFFFFC0000
0001FFFFFF0000
0007FFFFFFC000
000FFFFFFFE000
001FFFFFFFF000
003FFFFFFFF800
007FF801FFFC00
00FFC0003FFE00
01FF80000FFF00
01FE000007FF80
03FC000003FF80
03FC000001FFC0
07F80000007FC0
0FF00000007FE0
0FF00000003FE0
0FE00000001FF0
1FE00000000FF0
1FC00000000FF8
3FC000000007F8
3FC000000007F8
3FC000000003FC
7F8000000003FC
7F8000000003FC
7F8000000001FE
7F8000000001FE
7F8000000001FE
FF0000000000FE
FF0000000000FE
FF0000000000FE
FF0000000000FE
FF0000000000FE
FF0000000000FE
FF0000000000FF
FF0000000000FE
FF0000000000FE
FF000003E000FE
FF000007F800FE
FF800007FC00FE
FF80000FFC00FE
FF80000FFE00FE
FF800007FF01FE
7F800007FF81FC
7FC00003FFC1FC
7FC00001FFC3FC
3FC00000FFE3F8
3FE00000FFF3F8
3FE000007FFFF8
1FF000003FFFF0
1FF000001FFFF0
1FF800000FFFE0
0FFC000007FFE0
07FC000003FFC0
07FE000003FFC0
03FF000001FFE0
01FF800003FFF0
01FFE0000FFFF8
00FFF8007FFFF8
007FFF8FFFFFFC
003FFFFFFFFFFE
001FFFFFFF8FFE
0007FFFFFF07FE
0003FFFFFC03FE
0000FFFFF001FE
00003FFFC000FC
000007FE000078
ENDCHAR
STARTCHAR R
ENCODING 82
SWIDTH 454 0
DWIDTH 45 0
BBX 39 67 4 0
BITMAP
0007FE0000
007FFFC000
03FFFFF800
0FFFFFFC00
1FFFFFFF00
3FFFFFFF80
7FFFFFFFC0
7FFFFFFFE0
FFE007FFF0
FF00007FF8
FF00001FF8
FF00000FFC
FF000007FC
FF000003FC
FF000003FE
FF000001FE
FF000001FC
FF000001FC
FF000001FC
FF000003FC
FF000003F8
FF000007F0
FF00000FF0
FF00001FE0
FF00007FC0
FF0000FF80
FF0001FF00
FF0007FE00
FF001FFC00
FF007FF800
FF01FFF000
FF1FFFE000
FFFFFF8000
FFFFFE0000
FFFFFC0000
FFFFF00000
FFFFC00000
FFFE000000
FFFF000000
FFFF800000
FFFFC00000
FFFFF00000
FFFFF80000
FEFFFC0000
FE3FFE0000
FE1FFF0000
FE07FF8000
FE03FFE000
FE01FFF000
FF00FFF800
FF003FFC00
FF001FFE00
FF000FFE00
FF0007FF00
FF0003FF80
FF0001FFC0
FF0000FFE0
FF00007FE0
FF00003FF0
FF00001FF8
FF00001FF8
FF00000FF8
FF000007FC
FF000007FC
FE000003F8
7C000003F0
30000000E0
ENDCHAR
STARTCHAR S
ENCODING 83
SWIDTH 459 0
DWIDTH 46 0
BBX 41 67 3 0
BITMAP
00007FFC0000
0007FFFF8000
003FFFFFF000
00FFFFFFF800
01FFFFFFFC00
07FFFFFFFE00
0FFFFFFFFE00
1FFFC07FFE00
1FFE000FFE00
3FF80001FE00
3FF000007C00
7FE000000000
7FC000000000
7F8000000000
FF8000000000
FF8000000000
FF8000000000
FF8000000000
FF8000000000
7FC000000000
7FC000000000
7FE000000000
7FF800000000
3FFE00000000
3FFFC0000000
1FFFFC000000
1FFFFFC00000
0FFFFFFC0000
03FFFFFF0000
01FFFFFFC000
007FFFFFE000
001FFFFFF000
0003FFFFF800
00001FFFFC00
000001FFFE00
0000003FFE00
0000000FFF00
00000007FF00
00000003FF00
00000001FF80
00000000FF80
00000000FF80
000000007F80
000000007F80
000000007F80
000000007F80
000000007F80
000000007F80
000000007F80
00000000FF80
00000000FF80
00000000FF00
00000001FF00
1F000003FF00
3FC00003FF00
7FF00007FE00
FFFC001FFE00
FFFF803FFC00
7FFFFFFFFC00
7FFFFFFFF800
3FFFFFFFF000
1FFFFFFFF000
07FFFFFFE000
01FFFFFF8000
007FFFFF0000
000FFFFC0000
0000FFE00000
ENDCHAR
STARTCHAR T
ENCODING 84
SWIDTH 468 0
DWIDTH 47 0
BBX 48 65 0 0
BITMAP
1FFFFFFFFFFE
3FFFFFFFFFFF
7FFFFFFFFFFF
FFFFFFFFFFFF
FFFFFFFFFFFF
FFFFFFFFFFFE
7FFFFFFFFFFC
3FFFFFFFFF00
00000FF00000
00000FF00000
00000FF00000
00000FF00000
00000FF00000
00000FE00000
00001FE00000
00001FE00000
00001FE00000
00001FE00000
00001FE00000
00001FE00000
00001FE00000
00001FE00000
00001FE00000
00001FE00000
00001FE00000
00001FE00000
00001FE00000
00001FE00000
00001FE00000
00001FE00000
00001FE00000
00001FE00000
00001FE00000
00001FE00000
00001FE00000
00001FE00000
00001FE00000
00001FE00000
00001FE00000
00001FE00000
00001FE00000
00001FE00000
00001FE00000
00001FE00000
00001FF00000
00001FF00000
00001FF00000
00001FF00000
00001FF00000
00001FF00000
00001FF00000
00001FF00000
00001FF00000
00001FF00000
00000FF00000
00000FF00000
00000FF00000
00000FF00000
00000FF00000
00000FF00000
00000FF00000
00000FF00000
00000FF00000
00000FE00000
000007E00000
ENDCHAR
STARTCHAR U
ENCODING 85
SWIDTH 550 0
DWIDTH 55 0
BBX 48 67 3 0
BITMAP
000000000038
0300000000FC
0F80000000FC
1F80000001FE
3FC0000001FE
3FC0000001FE
3F80000001FE
3F80000001FE
3F80000001FE
3F80000000FE
7F80000000FF
7F80000000FF
7F80000000FF
7F80000000FF
7F80000000FF
7F80000000FF
7F80000000FF
7F80000000FF
7F80000000FF
7F80000000FF
7F80000000FF
7F00000000FF
7F00000000FF
7F00000000FF
7F00000000FF
7F00000000FF
7F00000000FF
FF00000000FF
FF00000000FF
FF00000000FF
7F00000000FF
7F80000000FF
7F80000000FF
7F80000000FF
7F80000000FF
7F80000000FF
7F80000000FF
7FC0000000FF
7FC0000000FF
3FC0000000FF
3FC0000000FE
3FE0000000FE
3FE0000000FE
1FE0000001FE
1FF0000001FE
1FF0000001FE
1FF8000001FC
0FF8000001FC
0FFC000003FC
07FC000003F8
07FE000007F8
03FF000007F8
03FF80000FF0
01FF80000FF0
01FFC0001FE0
00FFE0003FC0
007FF0007FC0
007FFC00FF80
003FFF03FF00
001FFFFFFF00
000FFFFFFE00
0007FFFFFC00
0003FFFFF800
0000FFFFE000
00007FFFC000
00001FFF0000
000007F80000
ENDCHAR
STARTCHAR V
ENCODING 86
SWIDTH 562 0
DWIDTH 56 0
BBX 50 67 6 0
BITMAP
00000000000780
00000000000FC0
00000000001FC0
1E000000003FC0
3F000000003FC0
7F800000007F80
FF80000000FF80
FF80000000FF00
FFC0000001FF00
FFC0000001FE00
7FE0000001FE00
7FE0000003FE00
3FF0000003FC00
3FF0000007FC00
1FF8000007FC00
1FF8000007F800
1FF800000FF800
0FFC00000FF800
0FFC00000FF000
07FE00001FF000
07FE00001FF000
03FF00001FE000
03FF00003FE000
01FF00003FE000
01FF80003FC000
00FF80003FC000
00FFC0007FC000
00FFC0007FC000
007FC0007F8000
007FE0007F8000
003FE000FF8000
003FF000FF8000
001FF000FF0000
001FF800FF0000
000FF801FF0000
000FFC01FE0000
000FFC01FE0000
0007FC01FE0000
0007FE03FE0000
0003FE03FC0000
0003FF03FC0000
0001FF03FC0000
0001FF07F80000
0000FF87F80000
0000FF87F80000
0000FFC7F80000
00007FCFF00000
00007FEFF00000
00003FEFF00000
00003FEFE00000
00003FFFE00000
00001FFFE00000
00001FFFE00000
00000FFFC00000
00000FFFC00000
00000FFFC00000
000007FF800000
000007FF800000
000007FF800000
000003FF000000
000003FF000000
000001FF000000
000001FE000000
000001FE000000
000000FE000000
000000FC000000
00000070000000
ENDCHAR
STARTCHAR W
ENCODING 87
SWIDTH 616 0
DWIDTH 62 0
BBX 57 67 3 0
BITMAP
0000000000000200
0000000000000F00
1C00000000001F80
3E00000000003F80
7F00000000003F80
FF00000000003F80
FF00000000003F80
FF00000000007F80
FF00000000007F80
FF00000000007F80
FF00000000007F80
FF00000000007F80
FF00000000007F80
FF00000000007F80
7F80000000007F80
7F80000000007F00
7F8000000000FF00
7F8000000000FF00
7F8000000000FF00
7F8000000000FF00
7F8000000000FF00
7F8000000000FE00
7F8000000000FE00
7F8000000000FE00
3F8000000001FE00
3FC000000001FE00
3FC000080001FE00
3FC0003E0001FE00
3FC0007E0001FC00
3FC000FF0001FC00
3FC000FF0003FC00
3FC001FF0003FC00
3FC003FF8003FC00
1FC003FF8003FC00
1FE007FFC003FC00
1FE007FFC003F800
1FE00FFFC007F800
1FE00FFFE007F800
1FE01FFFE007F800
1FE01FDFE007F800
1FE03FCFF007F000
1FE03F8FF00FF000
0FF03F8FF80FF000
0FF07F07F80FF000
0FF07F07FC0FE000
0FF0FF03FC0FE000
0FF0FE03FC1FE000
0FF1FE01FE1FE000
0FF1FC01FE1FE000
0FF9FC00FF1FC000
0FFBF800FF1FC000
07FBF800FFBFC000
07FFF0007FFFC000
07FFF0007FFFC000
07FFF0003FFF8000
07FFE0003FFF8000
07FFE0001FFF8000
03FFC0001FFF8000
03FFC0000FFF8000
03FF80000FFF0000
03FF800007FF0000
01FF000003FF0000
01FF000003FF0000
01FE000001FE0000
00FE000000FE0000
00FC000000FE0000
00780000003C0000
ENDCHAR
STARTCHAR X
ENCODING 88
SWIDTH 601 0
DWIDTH 60 0
BBX 54 67 3 0
BITMAP
00000000000078
000000000000FC
000000000001FC
07C000000003FC
0FE000000003FC
0FF000000007FC
1FF000000007F8
1FF80000000FF8
1FF80000001FF0
0FFC0000001FE0
0FFE0000003FE0
07FE0000007FC0
07FF0000007F80
03FF000000FF80
03FF800001FF00
01FFC00003FE00
00FFC00003FE00
00FFE00007FC00
007FE0000FF800
007FF0000FF800
003FF8001FF000
001FF8003FE000
001FFC007FC000
000FFE007FC000
0007FE00FF8000
0007FF01FF0000
0003FF03FE0000
0003FF87FE0000
0001FFC7FC0000
0000FFCFF80000
0000FFFFF00000
00007FFFF00000
00003FFFE00000
00003FFFC00000
00001FFF800000
00000FFF800000
00000FFF000000
000007FF000000
00000FFF000000
00000FFF800000
00001FFFC00000
00003FFFC00000
00007FFFE00000
0000FFFFE00000
0001FFFFF00000
0001FF3FF80000
0003FE1FF80000
0007FC1FFC0000
000FFC0FFE0000
001FF807FF0000
003FF007FF0000
007FE003FF8000
00FFC001FFC000
00FF8001FFC000
01FF0000FFE000
03FF00007FF000
07FE00007FF800
0FFC00003FFC00
1FF800001FFC00
3FF000000FFE00
7FE000000FFF00
7FC0000007FF00
FF80000003FF00
FF00000003FF00
FF00000001FE00
FE00000000FE00
7C000000007800
ENDCHAR
STARTCHAR Y
ENCODING 89
SWIDTH 442 0
DWIDTH 44 0
BBX 41 66 2 1
BITMAP
380000000E00
7C0000001F80
FE0000003F80
FF0000007F80
FF0000007F80
FF800000FF00
7F800001FF00
7FC00003FE00
3FE00003FC00
3FE00007F800
1FF0000FF800
1FF0000FF000
0FF8001FE000
0FF8001FE000
07FC003FC000
07FC007F8000
03FE007F8000
03FE00FF0000
01FF00FE0000
01FF01FE0000
00FF83FC0000
00FFC3FC0000
007FC7F80000
007FE7F00000
003FEFF00000
003FFFE00000
001FFFE00000
000FFFC00000
000FFFC00000
0007FF800000
0007FF800000
0003FF000000
0003FF000000
0001FF000000
0001FE000000
0000FE000000
0000FE000000
0000FE000000
0000FE000000
0000FE000000
0000FE000000
0000FE000000
0000FE000000
0000FE000000
0000FE000000
0000FE000000
0000FE000000
0000FE000000
0000FE000000
0000FE000000
0000FE000000
0000FE000000
0000FE000000
0000FE000000
0000FE000000
0000FE000000
0000FE000000
0000FE000000
0000FE000000
0000FE000000
0000FE000000
0000FE000000
0000FE000000
0000FE000000
00007E000000
00007C000000
ENDCHAR
STARTCHAR Z
ENCODING 90
SWIDTH 507 0
DWIDTH 51 0
BBX 45 67 4 0
BITMAP
1FFFFC000000
7FFFFFFC0000
FFFFFFFFF000
FFFFFFFFFF00
FFFFFFFFFFC0
FFFFFFFFFFF0
FFFFFFFFFFF8
0003FFFFFFF8
0000001FFFF8
000000007FF0
000000001FF0
000000001FF0
000000003FE0
000000003FE0
000000007FC0
00000000FF80
00000000FF80
00000001FF00
00000003FF00
00000003FE00
00000007FC00
0000000FF800
0000001FF800
0000001FF000
00E0003FE000
03FE007FE000
03FFE0FFC000
07FFFFFF8000
07FFFFFFFC00
07FFFFFFFE00
03FFFFFFFF00
01FFFFFFFF00
007FFFFFFF00
001FFFFFFE00
0001FFFFFC00
00007FFFF000
0000FFC00000
0001FF800000
0001FF000000
0003FE000000
0007FC000000
000FFC000000
001FF8000000
003FF0000000
007FE0000000
007FC0000000
00FF80000000
01FF80000000
03FF00000000
03FE00000000
07FE00000000
07FC00000000
0FF800000000
1FF800000000
1FF000000000
1FF000000000
3FE000000000
3FE000000000
3FE000000000
7FF80007FFC0
7FFFFFFFFFE0
7FFFFFFFFFE0
7FFFFFFFFFE0
FFFFFFFFFFE0
FFFFFFFFFFE0
7FFFFFFFFFC0
7FFFFFFFFE00
ENDCHAR
STARTCHAR a
ENCODING 97
SWIDTH 392 0
DWIDTH 39 0
BBX 35 47 2 -1
BITMAP
0003FE1F00
001FFFFF80
007FFFFF80
00FFFFFFC0
03FFFFFFC0
03FFFFFFC0
07FFFFFFC0
0FFFFFFFC0
0FFFFFFFC0
1FFC01FFC0
1FF000FFC0
3FE000FFC0
3FC0007FC0
3FC0007FC0
7F80003FC0
7F80003FC0
7F80003FC0
7F00003FC0
7F00003FC0
7F00003FC0
7F00003FC0
7F00003FC0
FF00003FC0
FF00003FC0
FF00003FC0
FF00003FC0
7F00003FC0
7F00007FC0
7F00007FC0
7F00007FC0
7F80007FC0
7F8000FFC0
7F8000FFE0
7F8000FFE0
3FC001FFE0
3FC003FFE0
3FE007FFE0
3FF01FFFE0
1FFEFFFFE0
1FFFFFFFE0
0FFFFFFFE0
07FFFFDFE0
03FFFF9FE0
01FFFF1FE0
00FFFC1FE0
001FE01FE0
0000001FC0
ENDCHAR
STARTCHAR b
ENCODING 98
SWIDTH 412 0
DWIDTH 41 0
BBX 33 72 4 0
BITMAP
0C00000000
7E00000000
FF00000000
FF00000000
FF00000000
FF00000000
FF00000000
FF00000000
FF00000000
FF00000000
FF00000000
FF00000000
FF00000000
FF00000000
FF00000000
FF00000000
FF00000000
FF00000000
FF00000000
FF00000000
FF00000000
FF00000000
FF00000000
FF00000000
FF00000000
FF00000000
FFFFC00000
FFFFF80000
FFFFFE0000
FFFFFF8000
FFFFFFC000
FFFFFFE000
FFFFFFF000
FFFFFFF800
FF00FFF800
FF001FFC00
FF000FFC00
FF0007FE00
7F0003FE00
7F0001FF00
7F0000FF00
7F0000FF00
7F00007F80
7F00007F80
7F00007F80
7F80007F80
7F80003F80
7F80003F80
7F80003F80
7F80003F80
7F80003F80
7F80003F80
7F80007F80
7F80007F80
7F80007F80
7F80007F00
7F8000FF00
7F8000FF00
7F8001FE00
7F8003FE00
7F8007FC00
7F800FFC00
7F803FF800
7F80FFF000
7FFFFFF000
7FFFFFE000
7FFFFFC000
7FFFFF8000
7FFFFE0000
3FFFFC0000
1FFFE00000
03FF000000
ENDCHAR
STARTCHAR c
ENCODING 99
SWIDTH 388 0
DWIDTH 39 0
BBX 36 47 2 0
BITMAP
00001FF800
0000FFFF80
0003FFFFC0
000FFFFFE0
003FFFFFE0
007FFFFFE0
00FFFFFFE0
01FFFFFFE0
03FFFCFFC0
07FFC01F80
0FFF000300
0FFC000000
1FF8000000
1FF0000000
3FF0000000
3FE0000000
7FE0000000
7FC0000000
7FC0000000
7FC0000000
7F80000000
FF80000000
FF80000000
FF80000000
FF80000000
FF80000000
FF80000000
7F80000000
7F80000000
7FC0000000
7FC0000000
7FC0000000
7FC0000000
3FE00001E0
3FE00007F0
3FF0001FF0
1FF800FFF0
1FFE03FFF0
0FFFFFFFE0
0FFFFFFFE0
07FFFFFFC0
03FFFFFF00
03FFFFFE00
01FFFFF800
007FFFE000
003FFF8000
0007FC0000
ENDCHAR
STARTCHAR d
ENCODING 100
SWIDTH 390 0
DWIDTH 39 0
BBX 35 72 2 -1
BITMAP
0000001F00
0000003F80
0000003F80
0000003F80
0000003F80
0000003F80
0000003F80
0000003F80
0000003F80
0000003F80
0000003F80
0000003F80
0000003F80
0000003F80
0000003F80
0000003F80
0000003F80
0000003F80
0000003F80
0000003F80
0000003F80
0000003F80
0000003F80
0000003FC0
00003FFFC0
0001FFFFC0
0007FFFFC0
001FFFFFC0
003FFFFFC0
007FFFFFC0
00FFFFFFC0
01FFFFFFC0
03FFFFFFC0
07FF81FFC0
07FE00FFC0
0FFC007FC0
0FF8003FC0
1FF0003FC0
1FF0003FC0
3FE0001FC0
3FC0001FC0
3FC0001FC0
3FC0001FC0
7F80001FC0
7F80001FC0
7F80001FC0
7F80001FC0
7F80001FC0
7F80001FC0
7F80001FE0
FF80001FE0
FF80001FE0
FF80001FE0
7F80003FE0
7F80003FE0
7F80003FE0
7FC0007FE0
7FC0007FE0
7FE0007FE0
3FE000FFE0
3FF001FFE0
1FF803FFE0
1FFE0FFFE0
0FFFFFFFE0
0FFFFFFFE0
07FFFFFFE0
03FFFFFFE0
01FFFFFFE0
007FFFCFE0
003FFF0FE0
0007FC0FC0
0000000780
ENDCHAR
STARTCHAR e
ENCODING 101
SWIDTH 398 0
DWIDTH 40 0
BBX 36 47 2 -1
BITMAP
000FF00000
007FFE0000
01FFFF8000
03FFFFE000
07FFFFF000
0FFFFFF800
0FFFFFFC00
1FFC0FFC00
3FF007FE00
3FE003FE00
3FE003FE00
7FC003FE00
7FC003FE00
7F8003FE00
7F8007FC00
FF800FFC00
FF803FF800
FF01FFF800
FFFFFFF000
FFFFFFE000
FFFFFFC000
FFFFFF8000
FFFFFF0000
FFFFF80000
FFFFC00000
FF00000000
FF80000000
FF80000000
7F80000000
7F80000000
7F80000380
7FC0000FE0
3FC0001FE0
3FC0003FF0
3FE0007FF0
3FF001FFE0
1FF803FFE0
1FFC3FFFC0
0FFFFFFF80
0FFFFFFF00
07FFFFFE00
07FFFFFC00
03FFFFF000
01FFFFE000
00FFFF8000
003FFE0000
000FE00000
ENDCHAR
STARTCHAR f
ENCODING 102
SWIDTH 359 0
DWIDTH 36 0
BBX 33 72 2 0
BITMAP
00007FF000
0001FFFE00
0003FFFF00
0003FFFF80
0007FFFF80
0007FFFF80
0007FFFF80
000FFFFF80
000FF01F00
000FF00200
000FE00000
000FE00000
000FE00000
000FE00000
000FE00000
000FE00000
001FE00000
001FE00000
001FE00000
001FE00000
001FE00000
001FE00000
001FE00000
001FE00000
001FE00000
0FFFE00000
7FFFFFF800
FFFFFFFC00
FFFFFFFC00
FFFFFFFC00
FFFFFFFC00
7FFFFFF800
0FFFFFE000
001FE00000
001FE00000
001FE00000
001FE00000
001FE00000
001FE00000
001FE00000
001FE00000
000FE00000
000FE00000
000FF00000
000FF00000
000FF00000
000FF00000
000FF00000
000FF00000
000FF00000
000FF00000
000FF00000
000FF00000
000FF00000
000FF00000
000FF00000
0007F00000
0007F00000
0007F00000
0007F00000
0007F00000
0007F00000
0007F00000
0007F00000
0007F00000
0007F00000
0007F00000
0007F80000
0007F00000
0007F00000
0007E00000
0003C00000
ENDCHAR
STARTCHAR g
ENCODING 103
SWIDTH 445 0
DWIDTH 45 0
BBX 36 78 5 -32
BITMAP
0000FF8000
0007FFF000
001FFFF800
007FFFFE00
00FFFFFE00
01FFFFFF00
03FFFFFF80
07FFFFFF80
07FF03FF80
0FFC00FFC0
1FF0007FC0
1FF0003FC0
3FE0003FC0
3FC0003FC0
3FC0001FE0
7F80001FE0
7F80001FE0
7F80001FE0
7F80001FE0
7F00001FE0
7F00001FE0
7F00001FE0
FF00001FE0
FF00001FE0
FF00001FE0
7F00001FE0
7F80001FE0
7F80001FE0
7F80001FE0
7F80001FE0
7FC0001FE0
3FC0003FE0
3FE0003FE0
3FF0007FE0
1FF8007FE0
1FFC01FFE0
0FFFFFFFE0
0FFFFFFFE0
07FFFFFFE0
03FFFFFFE0
01FFFFFFE0
00FFFFFFE0
007FFFEFE0
003FFFCFE0
000FFF0FE0
0003FC0FE0
0000000FE0
0000000FE0
0000000FE0
0000000FE0
0000000FE0
0000000FF0
0000000FF0
0000000FF0
0000000FF0
0000000FF0
0000000FF0
0000000FF0
0000000FF0
0000000FF0
0000000FF0
0000000FF0
0000000FF0
0000000FF0
0000001FF0
0000001FE0
0700001FE0
0FE0003FE0
1FF8003FE0
1FFF007FC0
1FFFE1FFC0
1FFFFFFF80
1FFFFFFF80
0FFFFFFF00
07FFFFFE00
01FFFFFC00
003FFFF000
0003FF0000
ENDCHAR
STARTCHAR h
ENCODING 104
SWIDTH 420 0
DWIDTH 42 0
BBX 36 72 4 0
BITMAP
0C00000000
7E00000000
7F00000000
FF00000000
FF00000000
FF00000000
FF00000000
FF00000000
FF00000000
FF80000000
FF80000000
FF80000000
FF80000000
FF80000000
FF80000000
FF80000000
FF80000000
FF80000000
FF80000000
FF80000000
FF80000000
FF80000000
7F80000000
7F80000000
7F80000000
7F81FF0000
7F8FFFE000
7FFFFFF800
7FFFFFFC00
7FFFFFFE00
7FFFFFFF00
7FFFFFFF00
7FFFFFFF80
7FFE03FF80
7FF800FFC0
7FF0007FC0
7FE0007FC0
3FE0003FC0
3FE0003FE0
3FE0001FE0
3FE0001FE0
3FE0001FE0
3FE0001FE0
3FE0001FE0
3FE0001FE0
3FE0001FF0
3FE0001FF0
3FE0001FF0
3FE0001FF0
3FE0001FF0
3FE0001FF0
3FE0001FF0
3FE0001FF0
3FE0001FF0
1FE0001FF0
1FE0001FE0
1FE0001FE0
1FE0001FE0
1FE0001FE0
1FE0001FE0
1FE0001FE0
1FE0001FE0
1FE0001FE0
1FE0001FE0
1FE0001FE0
1FE0001FE0
1FE0001FE0
1FE0001FE0
1FE0001FC0
0FE0001FC0
0FC0001F80
0780000F00
ENDCHAR
STARTCHAR i
ENCODING 105
SWIDTH 224 0
DWIDTH 22 0
BBX 10 64 5 -1
BITMAP
1E00
7F80
7F80
FFC0
FFC0
FFC0
FFC0
FFC0
7F80
3F00
1E00
0000
0000
0000
0000
0000
3E00
7F00
7F80
7F80
7FC0
7FC0
7FC0
7FC0
7FC0
7FC0
7FC0
7FC0
7FC0
7FC0
7FC0
7FC0
7FC0
7FC0
7FC0
7FC0
7FC0
7FC0
7FC0
7FC0
3FC0
3FC0
3FC0
3FC0
3FC0
3FC0
3FC0
3FC0
3FC0
3FC0
3FC0
3FC0
3FC0
3FC0
3FC0
3FC0
3FC0
3FC0
3FC0
3FC0
3FC0
3F80
1F00
1E00
ENDCHAR
STARTCHAR j
ENCODING 106
SWIDTH 235 0
DWIDTH 24 0
BBX 27 89 -10 -26
BITMAP
00001E00
00007F00
0000FF80
0000FFC0
0000FFC0
0000FFC0
0000FFC0
0000FFC0
00007F80
00007F00
00001E00
00000000
00000000
00000000
00000000
00000000
00000F80
00001FC0
00003FC0
00003FC0
00003FC0
00003FC0
00003FC0
00003FC0
00003FC0
00003FC0
00003FE0
00001FE0
00001FE0
00001FE0
00001FE0
00001FE0
00001FE0
00001FE0
00001FE0
00001FE0
00001FE0
00001FE0
00001FE0
00001FE0
00001FE0
00001FE0
00001FE0
00001FE0
00001FE0
00001FE0
00001FE0
00001FE0
00001FE0
00001FE0
00001FE0
00001FE0
00001FE0
00001FE0
00001FE0
00001FE0
00001FE0
00001FE0
00001FE0
00001FE0
00001FE0
00001FE0
00001FE0
00001FE0
00001FC0
00001FC0
00001FC0
00003FC0
00003FC0
00003FC0
00003FC0
00003FC0
00003FC0
00007F80
00007F80
1C007F80
7F00FF80
FF00FF00
FF81FF00
FF81FF00
FFC3FF00
FFFFFE00
FFFFFE00
7FFFFC00
3FFFF800
3FFFF000
0FFFE000
07FFC000
01FE0000
ENDCHAR
STARTCHAR k
ENCODING 107
SWIDTH 415 0
DWIDTH 42 0
BBX 35 71 4 0
BITMAP
3E00000000
7F00000000
FF00000000
FF00000000
FF00000000
FF00000000
FF00000000
FF00000000
FF00000000
FF00000000
FF00000000
FF00000000
FF00000000
FF00000000
FF00000000
FF00000000
FF00000000
FF00000000
FF00000000
FF00000000
FF00000000
FF00000000
7F00000000
7F00000000
7F00000F00
7F00001F80
7F00003F80
7F00007F80
7F0000FF80
7F0001FF80
7F0001FF80
7F0003FF00
7F0007FE00
7F000FFE00
7F001FFC00
7F001FF800
7F003FF800
7F007FF000
7F80FFE000
7F81FFE000
7F83FFC000
7F87FF8000
7F8FFF0000
7FBFFF0000
7FFFFF8000
7FFFFFC000
7FFFFFE000
7FFFFFE000
7FFFFFF000
7FFF9FF800
7FFF0FF800
3FFE07FC00
3FFC07FC00
3FF803FE00
3FF001FF00
3FC001FF00
3F8000FF80
3F8000FF80
3F80007F80
3F80007FC0
3F80003FC0
3F80003FE0
3F80003FE0
3F80001FE0
3F80001FE0
3F80001FE0
3F80000FE0
3F80000FE0
3F800007E0
3F000007E0
1E000003C0
ENDCHAR
STARTCHAR l
ENCODING 108
SWIDTH 266 0
DWIDTH 27 0
BBX 24 71 3 -1
BITMAP
1E0000
7F8000
7F8000
7F8000
7F8000
7F8000
FF8000
FF8000
FF8000
FF8000
FF8000
FF8000
FF8000
FF8000
FF8000
FF8000
FF8000
FF8000
FF8000
FF8000
FF8000
FF0000
FF0000
FF0000
FF0000
FF0000
FF0000
FF0000
FF0000
FF0000
FF0000
FF0000
FF0000
FF0000
FF0000
FF0000
FF0000
FF0000
FF0000
FF0000
7F0000
7F0000
7F0000
7F0000
7F0000
7F0000
7F0000
7F0000
7F8000
7F8000
7F8000
7F8000
7F8000
7F8000
7F8000
7F8000
7FC07C
7FC0FE
3FC0FE
3FC1FE
3FE1FE
3FF3FF
1FFFFE
1FFFFE
1FFFFE
0FFFFC
0FFFF8
07FFF0
03FFE0
01FFC0
007F00
ENDCHAR
STARTCHAR m
ENCODING 109
SWIDTH 680 0
DWIDTH 68 0
BBX 60 47 4 0
BITMAP
0003F80000300000
001FFF0007FF8000
003FFF801FFFE000
3E7FFFC07FFFF000
7EFFFFE0FFFFF800
7FFFFFF1FFFFFC00
FFFFFFFBFFFFFE00
FFFFFFFFFFFFFF00
FFFE1FFFFFFFFF00
FFF803FFF807FF80
FFF001FFF001FF80
FFE000FFF000FF80
7FE000FFE0007FC0
7FC0007FE0007FC0
7FC0007FC0003FC0
7FC0007FC0003FE0
7FC0007FC0001FE0
7FC0003FC0001FE0
7FC0003FC0001FE0
7FC0003FC0001FE0
7FC0003FC0000FE0
7FC0003F80000FE0
3FC0003F80000FF0
3FC0003F80000FF0
3FC0003F80000FF0
3FC0003F80000FF0
3FC0003F80000FF0
3FC0003F80000FF0
3FC0003F800007F0
3FC0003F800007F0
3FC0003F800007F0
3FC0003F800007F0
3FC0003F800007F0
3FC0003F800007F0
3FC0003F800007F0
3FC0003F80000FF0
3FC0003F80000FF0
3FC0003F80000FF0
3FC0003F80000FF0
3FC0003F80000FF0
3FC0003F80000FF0
3FC0003F80000FF0
3FC0003F80000FF0
3FC0003F80000FE0
3F80003F80000FE0
1F80003F000007C0
0E00001E00000780
ENDCHAR
STARTCHAR n
ENCODING 110
SWIDTH 452 0
DWIDTH 45 0
BBX 33 48 7 0
BITMAP
7C00000000
FE007F0000
FE03FFC000
FE0FFFE000
FE1FFFF000
FE3FFFF800
FE7FFFF800
FEFFFFFC00
FFFFFFFC00
FFFFFFFE00
FFFFFFFE00
FFFE07FE00
FFF803FF00
FFF001FF00
FFF001FF00
FFE000FF00
FFE000FF80
FFC000FF80
FFC000FF80
FFC0007F80
FF80007F80
FF80007F80
FF80007F80
FF80007F80
FF80003F80
FF80003F80
FF80003F80
FF80003F80
FF80003F80
FF80003F80
FF00003F80
FF00003F80
FF00003F80
FF00003F80
FF00003F80
FF00003F80
FF00003F80
FF00003F80
FF00003F80
FF00003F80
FF00003F80
FF00003F80
7F00003F80
7F00003F80
7F00003F80
7F00003F80
7E00003F00
3C00001E00
ENDCHAR
STARTCHAR o
ENCODING 111
SWIDTH 403 0
DWIDTH 40 0
BBX 35 47 3 0
BITMAP
0003FC0000
001FFF8000
007FFFC000
00FFFFE000
01FFFFF000
03FFFFF800
07FFFFFC00
0FFFFFFE00
0FFE0FFE00
1FF803FF00
1FF001FF00
3FE000FF80
3FC0007F80
3FC0007F80
7F80003FC0
7F80003FC0
7F80003FC0
7F00003FC0
7F00001FE0
FF00001FE0
FF00001FE0
FF00001FE0
FF00001FE0
FF00001FE0
FF00001FE0
FF00001FE0
FF00001FE0
FF00001FE0
FF00001FE0
7F80001FC0
7F80003FC0
7F80003FC0
7FC0003FC0
3FC0007FC0
3FE0007F80
3FF000FF80
1FF801FF00
1FFE0FFF00
0FFFFFFE00
07FFFFFE00
07FFFFFC00
03FFFFF800
01FFFFF000
00FFFFE000
007FFFC000
001FFF0000
0003FC0000
ENDCHAR
STARTCHAR p
ENCODING 112
SWIDTH 428 0
DWIDTH 43 0
BBX 37 79 4 -32
BITMAP
3C03FF0000
7E0FFFE000
7E3FFFF800
FF7FFFFC00
FFFFFFFE00
FFFFFFFF00
FFFFFFFF80
FFFFFFFF80
FFFE07FFC0
FFF800FFC0
FFE0007FE0
FFC0003FE0
FFC0001FE0
FF80001FF0
FF00000FF0
FF00000FF0
FF00000FF8
FF000007F8
FF000007F8
FF000007F8
FF000007F8
FF000007F8
FF000007F8
FF000007F8
FF000007F8
FF000007F8
FF000007F8
FF000007F8
FF000007F8
FF000007F8
FF000007F8
FF00000FF8
FF00000FF8
FF00000FF0
FF00001FF0
FF00003FE0
FF80007FE0
FFE001FFC0
FFF007FFC0
FFFFFFFF80
FFFFFFFF00
FFFFFFFE00
FFFFFFFC00
FFFFFFF800
FF7FFFE000
FF3FFF8000
FF07F80000
FF00000000
FF00000000
FF00000000
FF00000000
FF00000000
FF00000000
FF00000000
FF00000000
FF00000000
FF00000000
FF00000000
FF00000000
FF00000000
FF00000000
FF00000000
FF00000000
FF00000000
FF00000000
FF00000000
FF00000000
FF00000000
FF00000000
FF00000000
FF00000000
FF00000000
FF00000000
FF00000000
FF00000000
FE00000000
FE00000000
FC00000000
7800000000
ENDCHAR
STARTCHAR q
ENCODING 113
SWIDTH 463 0
DWIDTH 46 0
BBX 41 78 3 -32
BITMAP
0001FF800000
001FFFF00000
007FFFFC0000
00FFFFFF0000
01FFFFFF8000
03FFFFFFC000
07FFFFFFE000
0FFFFFFFE000
1FF803FFF000
1FF000FFF800
3FE0003FF800
3FC0001FFC00
3F80000FFC00
7F800007FC00
7F800007FC00
7F800003FE00
7F000003FE00
FF000003FE00
FF000001FE00
FF000001FE00
FF000001FE00
FF000001FE00
FF000001FF00
FF000001FF00
FF000001FF00
FF000000FF00
FF000000FF00
FF000001FF00
FF800001FF00
7F800001FF00
7F800003FF00
7FC00003FF00
7FC00007FF00
3FE0000FFF00
3FF0000FFF00
3FF0001FFF00
1FF8007FFF00
0FFE00FFFF00
0FFFCFFFFF00
07FFFFFFFF00
03FFFFFEFF00
01FFFFFEFF00
00FFFFFCFF00
003FFFF0FF00
001FFFC0FF00
0003FE00FF00
00000000FF00
00000000FF00
000000007F00
000000007F80
000000007F80
000000007F80
000000007F80
000000007F80
000000007F80
000000007F80
000000007F80
000000007F80
000000007F80
000000007F80
000000007F80
000000007F80
000000007F80
000000007F80
000000007F80
000000007F80
000000007F80
000000007F80
000000007F80
000000007F80
000000007F80
000000007F80
000000007F80
000000007F80
00000000FF00
000000007F00
000000007E00
000000003800
ENDCHAR
STARTCHAR r
ENCODING 114
SWIDTH 385 0
DWIDTH 39 0
BBX 32 47 5 0
BITMAP
FC000FF0
FE007FFE
FE01FFFF
FF07FFFF
FF0FFFFF
FF1FFFFF
FF3FFFFE
7F3FFFFE
7F7FFFF8
7F7FFC00
7FFFE000
7FFFC000
3FFF8000
3FFF0000
3FFE0000
3FFC0000
3FFC0000
3FFC0000
3FF80000
3FF80000
1FF80000
1FF80000
1FF00000
1FF00000
1FF00000
1FF00000
1FF00000
1FF00000
1FF00000
1FF00000
1FF00000
1FF00000
1FF00000
1FF00000
1FF00000
1FF00000
0FF00000
0FF00000
0FF00000
0FF00000
0FF00000
0FF00000
0FF00000
0FF00000
0FE00000
0FC00000
07800000
ENDCHAR
STARTCHAR s
ENCODING 115
SWIDTH 385 0
DWIDTH 39 0
BBX 31 47 5 0
BITMAP
003FF000
00FFFF00
03FFFFC0
07FFFFF0
0FFFFFF8
1FFFFFFC
3FFFFFFC
3FF8FFFC
7FC00FFC
7F8003F8
7F0000F0
7F000000
FF000000
FF000000
7F000000
7F000000
7F800000
7FC00000
7FF00000
3FFE0000
3FFFE000
1FFFFE00
0FFFFF80
03FFFFE0
00FFFFF0
0007FFF8
00007FFC
00000FFC
000007FC
000003FC
000001FE
000001FE
000001FE
000003FE
000003FC
000003FC
1C0007FC
7F800FFC
7FF01FFC
7FFFFFF8
7FFFFFF8
7FFFFFF0
7FFFFFE0
3FFFFFC0
0FFFFF80
03FFFE00
003FF000
ENDCHAR
STARTCHAR t
ENCODING 116
SWIDTH 344 0
DWIDTH 34 0
BBX 34 72 1 0
BITMAP
0000800000
0003E00000
0007F00000
000FF00000
000FF00000
000FF00000
000FF00000
000FF00000
000FF00000
000FF00000
000FF00000
000FF00000
000FF00000
000FF00000
000FF00000
000FF00000
000FF00000
000FF00000
000FF00000
000FF00000
000FF00000
000FF00000
000FF00000
000FF00000
000FF00100
3FFFFFFFC0
7FFFFFFFC0
FFFFFFFFC0
FFFFFFFFC0
FFFFFFFFC0
FFFFFFFFC0
FFFFFFFF80
7FFFFFFF00
0607F00000
0007F00000
0007F00000
0007F00000
0007F00000
0007F00000
0007F00000
0007F00000
0007F00000
0007F00000
0007F80000
0007F80000
0007F80000
0007F80000
0007F80000
0007F80000
0007F80000
0007F80000
0007F80000
0007F80000
0003F80000
0003F80000
0003F80000
0003F80000
0003FC0000
0003FC0000
0003FC0000
0003FC0000
0003FC0000
0003FC0000
0003FC0000
0001FC0000
0001FC0000
0001FC0000
0001FE0000
0001FE0000
0001FE0000
0000FC0000
0000F80000
ENDCHAR
STARTCHAR u
ENCODING 117
SWIDTH 400 0
DWIDTH 40 0
BBX 35 48 3 -1
BITMAP
1E00001C00
3F00003E00
7F00007F00
7F0000FF00
7F0000FF00
FF0000FF00
FF0000FF00
FF0000FF00
FF0000FF00
FF0000FF00
FF0000FF00
FF0000FF00
FF0000FF00
FF0000FF00
FF0000FF00
FF0000FF00
FF0000FF00
FF0000FF00
FF0000FF00
FF00007F00
FF00007F00
FF00007F80
FF00007F80
FF00007F80
FF00007F80
FF00007F80
FF00007F80
FF80007F80
FF80007F80
FF80007F80
7F80007F80
7F8000FF80
7F8000FF80
7FC001FFC0
7FC003FFC0
3FC00FFFC0
3FC01FFFC0
3FE03FFFC0
1FE0FFFFC0
1FFFFFFFC0
0FFFFFDFC0
0FFFFF9FE0
07FFFF1FE0
03FFFC1FE0
03FFF81FE0
00FFE01FE0
003F000FE0
0000000780
ENDCHAR
STARTCHAR v
ENCODING 118
SWIDTH 400 0
DWIDTH 40 0
BBX 37 47 2 0
BITMAP
00000000F0
3E000001F8
7E000003F8
FF000007F8
FF000007F8
FF800007F0
FF80000FF0
FFC0000FE0
7FC0001FE0
7FE0001FE0
3FE0001FC0
3FF0003FC0
1FF0003FC0
1FF8003F80
0FF8007F80
0FFC007F00
07FC007F00
07FE00FF00
03FE00FE00
03FF00FE00
01FF00FE00
01FF81FE00
00FF81FC00
00FFC1FC00
007FC3FC00
007FE3F800
003FE3F800
003FF7F800
001FF7F800
001FF7F000
000FFFF000
000FFFF000
000FFFE000
0007FFE000
0007FFE000
0003FFE000
0003FFC000
0001FFC000
0001FFC000
0001FFC000
0000FF8000
0000FF8000
0000FF8000
00007F8000
00007F0000
00007E0000
00003C0000
ENDCHAR
STARTCHAR w
ENCODING 119
SWIDTH 463 0
DWIDTH 46 0
BBX 41 47 2 0
BITMAP
1C0000000F00
7E0000001F00
7E0000003F00
FE0000003F80
FE0000003F80
FE0000003F80
FE0000003F80
FE0000003F80
FE0000003F80
FE0000003F80
7F0000003F80
7F0000003F80
7F0000003F80
7F0000003F80
7F0000001F80
7F0000001F80
7F0000001F80
7F0000001F80
7F8000001F80
7F8000001F80
7F8000001F80
7F801F001F80
3F803F803F80
3FC07FC03F80
3FC07FE03F80
3FC0FFE03F80
3FC0FFF03F80
3FE1FFF83F80
3FE1FFF83F00
1FE3FFFC7F00
1FF3FFFC7F00
1FF7FBFE7F00
1FF7FBFE7F00
0FFFF1FFFE00
0FFFF1FFFE00
0FFFE0FFFE00
0FFFE0FFFE00
07FFC07FFC00
07FFC07FFC00
07FF803FFC00
03FF803FF800
03FF001FF800
03FF001FF000
01FE000FF000
01FC000FE000
00F80007C000
002000010000
ENDCHAR
STARTCHAR x
ENCODING 120
SWIDTH 448 0
DWIDTH 45 0
BBX 37 47 4 0
BITMAP
07C00001E0
0FE00003F0
0FF00007F8
1FF00007F8
1FF8000FF8
0FF8001FF0
0FFC001FF0
07FC003FE0
07FE007FC0
03FF007FC0
01FF00FF80
01FF81FF80
00FF83FF00
00FFC3FE00
007FC7FE00
003FEFFC00
003FFFF800
001FFFF000
000FFFF000
000FFFE000
0007FFC000
0007FF8000
0003FF8000
0007FF0000
0007FF0000
000FFF8000
001FFF8000
003FFFC000
007FFFC000
00FFBFE000
01FFBFF000
01FF1FF000
03FE1FF800
07FE0FFC00
0FFC0FFC00
0FF807FE00
1FF807FF00
3FF003FF00
3FE001FF80
7FE001FFC0
7FC000FFE0
FF80007FE0
FF80007FE0
FF00003FE0
FE00001FE0
7C00000FC0
0000000380
ENDCHAR
STARTCHAR y
ENCODING 121
SWIDTH 423 0
DWIDTH 42 0
BBX 37 77 2 -31
BITMAP
3C000001F0
7E000003F8
FF000007F8
FF000007F8
FF800007F8
FF80000FF8
7F80000FF8
7FC0000FF8
7FC0000FF0
3FC0001FF0
3FE0001FF0
1FE0001FF0
1FF0001FE0
1FF0003FE0
0FF0003FE0
0FF8003FC0
0FF8003FC0
07F8007FC0
07FC007FC0
03FC007F80
03FC007F80
03FE00FF80
01FE00FF00
01FF00FF00
00FF00FF00
00FF01FF00
00FF81FE00
007F81FE00
007FC1FE00
003FC3FC00
003FC3FC00
003FE3FC00
001FE3FC00
001FF7F800
000FF7F800
000FF7F800
000FFFF000
0007FFF000
0007FFF000
0003FFE000
0003FFE000
0003FFE000
0001FFE000
0001FFC000
0000FFC000
0000FFC000
00007F8000
00007F8000
0000FF8000
0000FF0000
0000FF0000
0001FF0000
0001FE0000
0001FE0000
0003FE0000
0003FE0000
0003FC0000
0007FC0000
0007FC0000
0007F80000
000FF80000
000FF80000
000FF00000
001FF00000
001FF00000
001FE00000
001FE00000
003FE00000
003FC00000
003FC00000
003FC00000
007F800000
007F800000
003F800000
003F000000
003F000000
000E000000
ENDCHAR
STARTCHAR z
ENCODING 122
SWIDTH 428 0
DWIDTH 43 0
BBX 37 46 3 0
BITMAP
1FFFFFF000
7FFFFFFE00
FFFFFFFF00
FFFFFFFFC0
FFFFFFFFE0
FFFFFFFFE0
FFFFFFFFF0
7FFFFFFFF0
1E00007FF0
0000003FF0
0000001FF0
0000001FF0
0000003FE0
0000003FE0
0000007FE0
000000FFC0
000003FF80
000007FF00
00000FFE00
00003FFC00
00007FF800
0001FFF000
0003FFE000
0007FFC000
000FFF8000
003FFE0000
007FFC0000
00FFF80000
01FFE00000
03FFC00000
03FF800000
07FF000000
0FFE000000
1FFC000000
1FF8000000
1FF0000000
3FE00001E0
3FF000FFF8
3FFFFFFFF8
3FFFFFFFF8
1FFFFFFFF8
1FFFFFFFF8
0FFFFFFFF0
07FFFFFFC0
01FFFFFF00
003FFFE000
ENDCHAR
ENDFONT
